# xmcd CD database file
#
# Track frame offsets:
#	150
#	24277
#	45190
#	67162
#	86715
#	118062
#	145425
#	168207
#	186172
#	210295
#	217020
#
# Disc length: 3127 seconds
#
# Revision: 19
# Processed by: cddbd v1.5.2PL0 Copyright (c) Steve Scherf et al.
# Submitted via: CDex 1.51
#
DISCID=990c350b
DTITLE=Van Halen - For Unlawful Carnal Knowledge
DYEAR=1991
DGENRE=Rock
TTITLE0=Poundcake
TTITLE1=Judgement Day
TTITLE2=Spanked
TTITLE3=Runaround
TTITLE4=Pleasure Dome
TTITLE5=In 'N' Out
TTITLE6=Man On A Mission
TTITLE7=The Dream Is Over
TTITLE8=Right Now
TTITLE9=316
TTITLE10=Top Of The World
EXTD=LABEL =Warner Bros. Records Inc.\nID =W226594\nUPC =020831-4202-273\nCOPYRIGHT =1991 YEAR: 1991
EXTT0=
EXTT1=
EXTT2=
EXTT3=
EXTT4=
EXTT5=
EXTT6=
EXTT7=
EXTT8=
EXTT9=
EXTT10=
PLAYORDER=
